<?xml version="1.0" encoding="utf-8"?>
<!-- Generator: Adobe Illustrator 16.0.0, SVG Export Plug-In . SVG Version: 6.00 Build 0)  -->
<!DOCTYPE svg PUBLIC "-//W3C//DTD SVG 1.1//EN" "http://www.w3.org/Graphics/SVG/1.1/DTD/svg11.dtd">
<svg version="1.1" id="Layer_1" xmlns="http://www.w3.org/2000/svg" xmlns:xlink="http://www.w3.org/1999/xlink" x="0px" y="0px"
	 width="50px" height="50px" viewBox="0 0 50 50" enable-background="new 0 0 50 50" xml:space="preserve">
<path d="M25,1.5c-8.441,0-15.287,6.556-15.287,14.644c0,9.604,6.671,12.052,6.671,17.642c0,1.382,1.056,2.666,2.643,3.611
	c-0.333,0.275-0.517,0.578-0.517,0.896c0,0.426,0.335,0.824,0.909,1.165c-0.54,0.334-0.852,0.72-0.852,1.132
	c0,0.416,0.32,0.804,0.872,1.141c-0.563,0.339-0.892,0.732-0.892,1.153c0,0.511,0.484,0.983,1.293,1.365
	c-0.314,0.285-0.493,0.599-0.493,0.93c0,0.978,1.525,1.81,3.668,2.141c0.375,0.698,1.14,1.181,2.032,1.181
	c0.889,0,1.652-0.48,2.029-1.176c2.162-0.327,3.704-1.163,3.704-2.146c0-0.327-0.173-0.637-0.479-0.918
	c0.825-0.384,1.32-0.86,1.32-1.377c0-0.417-0.321-0.806-0.874-1.143c0.563-0.339,0.891-0.731,0.891-1.151
	c0-0.426-0.335-0.823-0.91-1.165c0.541-0.334,0.853-0.72,0.853-1.132c0-0.329-0.201-0.641-0.556-0.923
	c1.562-0.943,2.599-2.214,2.599-3.583c0-5.59,6.663-8.038,6.663-17.642C40.287,8.056,33.442,1.5,25,1.5z M32.982,25.207
	c-1.525,2.237-3.247,4.763-3.353,8.239c-0.522,0.584-2.389,1.533-4.625,1.533c-2.236,0-4.104-0.949-4.626-1.533
	c-0.106-3.478-1.831-6.003-3.357-8.241c-1.701-2.493-3.308-4.848-3.308-9.061C13.713,10.275,18.776,5.5,25,5.5
	s11.287,4.775,11.287,10.644C36.287,20.358,34.682,22.713,32.982,25.207z"/>
</svg>
